<?xml version="1.0" encoding="UTF-8"?>
<svg id="Layer_2" data-name="Layer 2" xmlns="http://www.w3.org/2000/svg" viewBox="0 0 472.63 59.8">
  <defs>
    <style>
      .cls-1 {
        fill: #fcf4ea;
      }
    </style>
  </defs>
  <g id="Layer_1-2" data-name="Layer 1">
    <g>
      <polygon class="cls-1" points="57.67 31.25 46.03 19.61 34.37 31.26 46.74 43.63 57.67 31.25"/>
      <polygon class="cls-1" points="32.12 31.09 23.86 22.82 15.59 31.09 24.36 39.87 32.12 31.09"/>
      <polygon class="cls-1" points="12.58 30.93 6.3 24.64 0 30.94 6.68 37.62 12.58 30.93"/>
    </g>
    <g>
      <polygon class="cls-1" points="414.96 31.25 426.6 19.61 438.26 31.26 425.89 43.63 414.96 31.25"/>
      <polygon class="cls-1" points="440.51 31.09 448.77 22.82 457.04 31.09 448.27 39.87 440.51 31.09"/>
      <polygon class="cls-1" points="460.05 30.93 466.34 24.64 472.63 30.94 465.95 37.62 460.05 30.93"/>
    </g>
    <g>
      <path class="cls-1" d="M238.9,0l2.73,11.48c1.85,7.77,7.92,13.85,15.69,15.69l11.48,2.73-11.48,2.73c-7.77,1.85-13.85,7.92-15.69,15.69l-2.73,11.48-2.73-11.48c-1.85-7.77-7.92-13.85-15.69-15.69l-11.48-2.73,11.48-2.73c7.77-1.85,13.85-7.92,15.69-15.69l2.73-11.48Z"/>
      <path class="cls-1" d="M289.97,12.03l1.68,7.08c1.14,4.79,4.88,8.53,9.67,9.67l7.08,1.68-7.08,1.68c-4.79,1.14-8.53,4.88-9.67,9.67l-1.68,7.08-1.68-7.08c-1.14-4.79-4.88-8.53-9.67-9.67l-7.08-1.68,7.08-1.68c4.79-1.14,8.53-4.88,9.67-9.67l1.68-7.08Z"/>
      <path class="cls-1" d="M186.72,12.03l1.68,7.08c1.14,4.79,4.88,8.53,9.67,9.67l7.08,1.68-7.08,1.68c-4.79,1.14-8.53,4.88-9.67,9.67l-1.68,7.08-1.68-7.08c-1.14-4.79-4.88-8.53-9.67-9.67l-7.08-1.68,7.08-1.68c4.79-1.14,8.53-4.88,9.67-9.67l1.68-7.08Z"/>
    </g>
  </g>
</svg>