<?xml version="1.0" encoding="UTF-8"?>
<svg id="Layer_2" data-name="Layer 2" xmlns="http://www.w3.org/2000/svg" viewBox="0 0 140.09 59.8">
  <defs>
    <style>
      .cls-1 {
        fill: #fcf4ea;
      }
    </style>
  </defs>
  <g id="Layer_1-2" data-name="Layer 1">
    <g>
      <path class="cls-1" d="M70.6,0l2.73,11.48c1.85,7.77,7.92,13.85,15.69,15.69l11.48,2.73-11.48,2.73c-7.77,1.85-13.85,7.92-15.69,15.69l-2.73,11.48-2.73-11.48c-1.85-7.77-7.92-13.85-15.69-15.69l-11.48-2.73,11.48-2.73c7.77-1.85,13.85-7.92,15.69-15.69l2.73-11.48Z"/>
      <path class="cls-1" d="M121.67,12.03l1.68,7.08c1.14,4.79,4.88,8.53,9.67,9.67l7.08,1.68-7.08,1.68c-4.79,1.14-8.53,4.88-9.67,9.67l-1.68,7.08-1.68-7.08c-1.14-4.79-4.88-8.53-9.67-9.67l-7.08-1.68,7.08-1.68c4.79-1.14,8.53-4.88,9.67-9.67l1.68-7.08Z"/>
      <path class="cls-1" d="M18.42,12.03l1.68,7.08c1.14,4.79,4.88,8.53,9.67,9.67l7.08,1.68-7.08,1.68c-4.79,1.14-8.53,4.88-9.67,9.67l-1.68,7.08-1.68-7.08c-1.14-4.79-4.88-8.53-9.67-9.67l-7.08-1.68,7.08-1.68c4.79-1.14,8.53-4.88,9.67-9.67l1.68-7.08Z"/>
    </g>
  </g>
</svg>