<?xml version="1.0" encoding="UTF-8"?>
<svg id="Layer_2" data-name="Layer 2" xmlns="http://www.w3.org/2000/svg" xmlns:xlink="http://www.w3.org/1999/xlink" viewBox="0 0 92.58 152.96">
  <defs>
    <style>
      .cls-1 {
        fill: #fcf4ea;
      }

      .cls-2 {
        fill: url(#linear-gradient);
        stroke: #fcf4ea;
        stroke-miterlimit: 10;
        stroke-width: 1.84px;
      }
    </style>
    <linearGradient id="linear-gradient" x1="47.26" y1="17.7" x2="44.94" y2="151" gradientUnits="userSpaceOnUse">
      <stop offset="0" stop-color="#2c2c2c"/>
      <stop offset=".12" stop-color="#b71111"/>
      <stop offset=".33" stop-color="#931717"/>
      <stop offset=".79" stop-color="#492626"/>
      <stop offset="1" stop-color="#2c2c2c"/>
    </linearGradient>
  </defs>
  <g id="Layer_1-2" data-name="Layer 1">
    <g>
      <g>
        <path class="cls-2" d="M.92,22.96v102.09l44.53,26.84,46.21-27.85V22.18c0-2.08-1.69-3.77-3.77-3.77H5.47c-2.51,0-4.55,2.04-4.55,4.55Z"/>
        <g>
          <path class="cls-1" d="M46.62,0l1.63,6.65c1.11,4.5,4.74,8.02,9.4,9.09l6.88,1.58-6.88,1.58c-4.66,1.07-8.29,4.59-9.4,9.09l-1.63,6.65-1.63-6.65c-1.11-4.5-4.74-8.02-9.4-9.09l-6.88-1.58,6.88-1.58c4.66-1.07,8.29-4.59,9.4-9.09l1.63-6.65Z"/>
          <path class="cls-1" d="M77.21,6.97l1.01,4.1c.68,2.78,2.92,4.94,5.79,5.6l4.24.97-4.24.97c-2.87.66-5.11,2.83-5.79,5.6l-1.01,4.1-1.01-4.1c-.68-2.78-2.92-4.94-5.79-5.6l-4.24-.97,4.24-.97c2.87-.66,5.11-2.83,5.79-5.6l1.01-4.1Z"/>
          <path class="cls-1" d="M15.37,6.97l1.01,4.1c.68,2.78,2.92,4.94,5.79,5.6l4.24.97-4.24.97c-2.87.66-5.11,2.83-5.79,5.6l-1.01,4.1-1.01-4.1c-.68-2.78-2.92-4.94-5.79-5.6l-4.24-.97,4.24-.97c2.87-.66,5.11-2.83,5.79-5.6l1.01-4.1Z"/>
        </g>
      </g>
      <g>
        <path class="cls-1" d="M9.31,65.91c1.18,1.31,2.91,2.46,3.38,3.99.51,1.68-.14,3.72-.34,6.33,3.68-2.45,6.97-3.76,10.34.18-1.05,1.21-2.02,3.29-3.54,3.83-1.57.56-3.68-.37-6.35-.76,1.39,3.18,2.4,5.86,3.78,8.34.34.61,1.91.84,2.87.75,4.65-.41,6.85-3.5,7.88-8.03.99.75,1.72,1.31,2.47,1.85,3.63,2.63,7.42,2.39,11.23.47.55-.28,1.13-.94,1.26-1.53.55-2.46.94-4.95,1.5-8.1-3.73,1.37-7.25,4.65-9.87-.57,1.71-4.25,5.32-4.11,9.67-2.85-.68-2.16-.97-3.72-1.64-5.09-1.62-3.33,1.6-4.02,3.03-5.53,1.46-1.55,2.16.57,3.13,1.2,2.29,1.46,2.39,3.39,1.27,5.67-.48.97-.67,2.08-1.12,3.55,2.28-.3,4.24-1.11,5.78-.62,1.56.5,2.72,2.28,4.58,4-2.08,1.1-3.62,2.52-5.18,2.55-1.54.03-3.11-1.34-5.33-2.42.38,3.67.04,7.23,2.25,9.35,2.48,2.38,6.16,2.49,9.48,1.06,1.52-.65,2.87-1.68,4.42-2.62.66,1.35,1.29,2.86,2.11,4.26,1.49,2.55,3.96,3.43,6.74,3.42.76,0,1.91-.46,2.22-1.05,1.24-2.4,2.22-4.93,3.58-8.06-4.26.76-8.27,1.91-9.42-3.39,2.94-3.61,6.21-2.22,9.74,0,.42-3.95-2.29-8.93,4.31-9.71-.8,3.17-1.55,6.31-2.38,9.43-1.86,6.99-3.82,13.95-5.61,20.95-.45,1.78-1.24,2.44-3.07,2.44-17.75-.05-35.5-.05-53.25-.02-1.4,0-2.26-.23-2.68-1.81-2.65-9.96-5.4-19.89-8.11-29.84-.09-.32-.01-.68-.01-1.02l.87-.61Z"/>
        <path class="cls-1" d="M45.87,105.44c-8.65,0-17.3.02-25.94-.02-1.03,0-2.69.47-2.42-1.38.09-.59,1.57-1.4,2.42-1.4,17.29-.08,34.59-.08,51.88,0,.85,0,2.33.8,2.42,1.39.27,1.83-1.38,1.39-2.42,1.39-8.65.03-17.29.02-25.94.02Z"/>
      </g>
    </g>
  </g>
</svg>